<?xml version="1.0" standalone="no"?>
<!DOCTYPE svg PUBLIC "-//W3C//DTD SVG 20010904//EN"
 "http://www.w3.org/TR/2001/REC-SVG-20010904/DTD/svg10.dtd">
<svg version="1.0" xmlns="http://www.w3.org/2000/svg"
 width="300.000000pt" height="168.000000pt" viewBox="0 0 300.000000 168.000000"
 preserveAspectRatio="xMidYMid meet">
<metadata>
Created by potrace 1.16, written by Peter Selinger 2001-2019
</metadata>
<g transform="translate(0.000000,168.000000) scale(0.100000,-0.100000)"
fill="#000000" stroke="none">
<path d="M0 840 l0 -840 400 0 c349 0 400 2 400 15 0 8 -5 15 -10 15 -13 0
-70 54 -70 67 0 5 -11 15 -25 21 -14 7 -28 19 -31 27 -4 8 -17 15 -30 15 -21
0 -24 4 -24 40 0 36 -2 40 -25 40 -22 0 -25 4 -25 40 0 22 5 40 10 40 6 0 10
18 10 40 0 22 -4 40 -10 40 -5 0 -10 -18 -10 -40 0 -29 -4 -40 -15 -40 -11 0
-15 11 -15 40 0 36 -2 40 -25 40 -22 0 -25 4 -25 40 0 22 5 40 10 40 6 0 10
18 10 40 0 36 -2 40 -25 40 l-25 0 0 240 0 240 25 0 c25 0 25 1 25 80 0 64 3
80 15 80 11 0 15 11 15 40 0 29 4 40 15 40 11 0 15 -11 15 -40 0 -22 5 -40 10
-40 6 0 10 18 10 40 0 22 -4 40 -10 40 -5 0 -10 16 -10 36 0 28 7 44 30 65 16
16 34 29 40 29 5 0 10 5 10 11 0 14 56 69 70 69 5 0 10 5 10 11 0 14 56 69 70
69 5 0 10 7 10 15 0 9 9 15 24 15 13 0 26 7 30 15 3 8 10 15 16 15 5 0 10 -7
10 -15 0 -11 11 -15 40 -15 38 0 40 2 40 30 0 28 2 30 40 30 22 0 40 5 40 10
0 7 -180 10 -520 10 l-520 0 0 -840z"/>
<path d="M1920 1655 c0 -22 4 -25 40 -25 29 0 40 -4 40 -15 0 -8 7 -15 15 -15
11 0 15 -11 15 -40 0 -36 3 -40 25 -40 16 0 25 6 25 16 0 9 6 14 13 12 7 -3
13 -26 15 -56 2 -37 7 -52 18 -52 10 0 14 -12 14 -40 0 -22 5 -40 10 -40 6 0
10 25 10 56 0 73 24 70 28 -4 l3 -52 40 0 c39 0 39 0 39 -40 0 -36 3 -40 25
-40 23 0 25 -4 25 -40 0 -22 -4 -40 -10 -40 -5 0 -10 -18 -10 -40 0 -22 5 -40
10 -40 6 0 10 18 10 40 0 29 4 40 15 40 12 0 15 -16 15 -80 0 -64 3 -80 15
-80 11 0 15 -11 15 -40 0 -22 5 -40 10 -40 6 0 10 -18 10 -40 0 -22 -4 -40
-10 -40 -6 0 -10 -33 -10 -80 0 -47 4 -80 10 -80 6 0 10 -18 10 -40 0 -22 -4
-40 -10 -40 -5 0 -10 -18 -10 -40 0 -29 -4 -40 -15 -40 -12 0 -15 -16 -15 -80
0 -64 -3 -80 -15 -80 -11 0 -15 11 -15 40 0 22 -4 40 -10 40 -5 0 -10 -18 -10
-40 0 -22 5 -40 10 -40 6 0 10 -18 10 -40 0 -36 -2 -40 -25 -40 -22 0 -25 -4
-25 -40 l0 -40 -40 0 -40 0 0 -40 c0 -29 -4 -40 -15 -40 -11 0 -15 11 -15 40
0 22 -4 40 -10 40 -5 0 -10 -18 -10 -40 0 -28 -4 -40 -14 -40 -11 0 -16 -15
-18 -52 -4 -65 -26 -77 -30 -16 l-3 43 -28 -28 c-15 -15 -32 -27 -37 -27 -6 0
-10 -18 -10 -40 l0 -40 500 0 500 0 0 840 0 840 -540 0 -540 0 0 -25z"/>
<path d="M1420 1342 c0 -10 11 -29 25 -42 32 -30 32 -40 -1 -40 -21 0 -25 -4
-22 -22 3 -20 9 -23 53 -23 28 -1 58 1 68 3 25 6 21 35 -8 62 -14 13 -25 27
-25 32 0 4 11 8 25 8 18 0 25 5 25 20 0 18 -7 20 -70 20 -61 0 -70 -2 -70 -18z"/>
<path d="M1580 1338 c0 -12 12 -35 27 -50 26 -28 27 -28 4 -28 -14 0 -20 4
-15 12 4 7 3 8 -4 4 -7 -4 -12 -19 -12 -34 0 -26 2 -27 66 -29 49 -1 67 2 71
13 5 15 -20 60 -46 82 -14 12 -12 13 12 9 23 -4 27 -1 27 19 0 23 -3 24 -65
24 -60 0 -65 -2 -65 -22z"/>
<path d="M1129 1155 c-2 -2 2 -63 9 -137 7 -73 23 -243 35 -378 l22 -245 130
-37 c72 -20 147 -37 168 -37 35 -1 86 11 247 57 l65 19 17 189 c9 104 24 263
33 354 9 91 17 176 18 190 l2 25 -371 2 c-204 1 -373 1 -375 -2z m670 -102 c0
-21 -13 -166 -27 -322 l-27 -284 -95 -27 c-166 -47 -150 -48 -150 9 l0 50 -42
11 c-111 29 -149 42 -153 53 -2 7 -5 40 -7 75 l-4 62 47 0 c46 0 47 -1 56 -36
7 -32 14 -38 53 -50 25 -8 46 -14 48 -14 1 0 2 31 2 69 l0 70 -52 3 -53 3 -3
48 -3 47 55 0 56 0 0 45 0 45 -114 0 -114 0 -4 46 c-2 25 -1 47 1 50 2 2 55 4
118 4 l113 0 0 40 0 40 150 0 150 0 -1 -37z"/>
</g>
</svg>
