<?xml version="1.0" standalone="no"?>
<!DOCTYPE svg PUBLIC "-//W3C//DTD SVG 20010904//EN"
 "http://www.w3.org/TR/2001/REC-SVG-20010904/DTD/svg10.dtd">
<svg version="1.0" xmlns="http://www.w3.org/2000/svg"
 width="435.000000pt" height="157.000000pt" viewBox="0 0 435.000000 157.000000"
 preserveAspectRatio="xMidYMid meet">
<metadata>
Created by potrace 1.16, written by Peter Selinger 2001-2019
</metadata>
<g transform="translate(0.000000,157.000000) scale(0.100000,-0.100000)"
fill="#000000" stroke="none">
<path d="M490 805 l0 -395 269 0 268 0 104 135 c57 74 106 135 110 135 4 0 54
-61 110 -135 57 -74 110 -135 117 -135 8 0 -17 39 -54 88 -38 48 -88 112 -111
142 -24 30 -43 59 -43 63 0 4 42 63 93 129 107 142 111 148 98 148 -5 0 -55
-59 -110 -131 l-100 -131 -97 131 c-86 117 -114 147 -114 124 0 -5 45 -66 99
-138 55 -71 97 -134 93 -140 -3 -5 -51 -67 -105 -137 l-98 -128 -255 0 -254 0
0 190 0 190 235 0 c150 0 235 4 235 10 0 6 -85 10 -235 10 l-235 0 0 175 0
175 251 0 c164 0 248 3 244 10 -4 6 -102 10 -261 10 l-254 0 0 -395z"/>
<path d="M1695 974 c-47 -17 -99 -65 -125 -114 l-19 -35 -1 72 c0 39 -4 75
-10 78 -7 4 -10 -123 -10 -374 0 -247 4 -381 10 -381 6 0 10 64 10 173 l0 172
19 -40 c48 -107 187 -156 299 -105 77 35 122 102 142 210 13 71 1 169 -27 224
-54 109 -178 160 -288 120z m180 -30 c85 -44 138 -181 117 -302 -23 -135 -91
-211 -197 -220 -108 -9 -198 51 -230 154 -26 85 -18 203 20 272 60 110 184
151 290 96z"/>
<path d="M2276 975 c-58 -21 -88 -46 -113 -95 l-23 -44 0 72 c0 41 -4 72 -10
72 -6 0 -10 -102 -10 -285 0 -168 4 -285 9 -285 6 0 11 87 13 203 3 184 5 206
25 242 36 68 105 115 168 115 14 0 25 5 25 10 0 14 -38 12 -84 -5z"/>
<path d="M2548 976 c-52 -19 -82 -40 -112 -79 -80 -105 -84 -300 -8 -408 54
-77 168 -109 276 -77 56 17 129 91 143 146 10 40 -1 62 -13 25 -26 -79 -55
-115 -119 -144 -55 -26 -147 -25 -201 1 -23 12 -54 38 -69 61 -28 39 -55 122
-55 166 l0 23 236 0 237 0 -5 63 c-3 35 -15 81 -26 104 -53 104 -179 156 -284
119z m190 -43 c55 -34 93 -100 100 -173 l5 -50 -227 0 -227 0 7 38 c18 99 85
189 159 212 52 16 133 4 183 -27z"/>
<path d="M3055 976 c-45 -17 -91 -63 -101 -101 -10 -39 4 -90 31 -117 23 -23
52 -34 229 -83 80 -22 126 -67 126 -123 0 -85 -86 -139 -208 -130 -109 8 -164
51 -178 141 -4 20 -11 37 -17 37 -13 0 -1 -73 18 -110 32 -62 122 -96 230 -88
37 3 78 14 97 25 80 47 103 144 48 206 -30 35 -47 42 -237 96 -91 27 -128 64
-120 124 7 48 47 93 96 107 116 32 236 -18 250 -105 3 -21 11 -40 17 -42 18
-6 0 74 -23 106 -43 58 -174 87 -258 57z"/>
<path d="M3565 976 c-45 -17 -91 -63 -101 -101 -10 -39 4 -90 31 -117 23 -23
52 -34 229 -83 80 -22 126 -67 126 -123 0 -85 -86 -139 -208 -130 -109 8 -164
51 -178 141 -4 20 -11 37 -17 37 -13 0 -1 -73 18 -110 32 -62 122 -96 230 -88
37 3 78 14 97 25 80 47 103 144 48 206 -30 35 -47 42 -237 96 -91 27 -128 64
-120 124 7 48 47 93 96 107 116 32 236 -18 250 -105 3 -21 11 -40 17 -42 18
-6 0 74 -23 106 -43 58 -174 87 -258 57z"/>
</g>
</svg>
